<svg xmlns="http://www.w3.org/2000/svg" viewBox="0 0 1200 800" role="img" aria-labelledby="title desc">
  <title id="title">Windows Programming preview</title>
  <desc id="desc">A dark programming workspace with a Windows-style grid and code panel.</desc>
  <defs>
    <linearGradient id="bg" x1="0" y1="0" x2="1" y2="1">
      <stop offset="0" stop-color="#121827" />
      <stop offset="1" stop-color="#26324a" />
    </linearGradient>
    <linearGradient id="accent" x1="0" y1="0" x2="1" y2="0">
      <stop offset="0" stop-color="#55d6be" />
      <stop offset="1" stop-color="#8ee3f5" />
    </linearGradient>
  </defs>
  <rect width="1200" height="800" rx="44" fill="url(#bg)" />
  <g opacity=".12" stroke="#dce9ff" stroke-width="1">
    <path d="M86 110h1028M86 204h1028M86 298h1028M86 392h1028M86 486h1028M86 580h1028M86 674h1028" />
    <path d="M118 78v640M258 78v640M398 78v640M538 78v640M678 78v640M818 78v640M958 78v640M1098 78v640" />
  </g>
  <text x="86" y="132" font-family="ui-monospace, SFMono-Regular, Menlo, monospace" font-size="24" fill="#9eb0ce">WINDOWS PROGRAMMING / 2025</text>
  <rect x="86" y="190" width="1028" height="430" rx="24" fill="#0b101b" stroke="#60708c" stroke-opacity=".5" />
  <circle cx="124" cy="230" r="8" fill="#ff6b6b" /><circle cx="150" cy="230" r="8" fill="#ffd166" /><circle cx="176" cy="230" r="8" fill="#55d6be" />
  <g font-family="ui-monospace, SFMono-Regular, Menlo, monospace" font-size="26">
    <text x="132" y="302" fill="#667895">01</text><text x="190" y="302" fill="#8ee3f5">public</text><text x="300" y="302" fill="#f4f1eb">class</text><text x="382" y="302" fill="#55d6be">Program</text><text x="514" y="302" fill="#f4f1eb">&#123;</text>
    <text x="132" y="356" fill="#667895">02</text><text x="190" y="356" fill="#d6b4ff">static</text><text x="302" y="356" fill="#8ee3f5">void</text><text x="378" y="356" fill="#f4f1eb">Main</text><text x="458" y="356" fill="#f4f1eb">()</text><text x="506" y="356" fill="#f4f1eb">&#123;</text>
    <text x="132" y="410" fill="#667895">03</text><text x="220" y="410" fill="#f4f1eb">Console</text><text x="340" y="410" fill="#8ee3f5">.WriteLine</text><text x="508" y="410" fill="#f4f1eb">(</text><text x="528" y="410" fill="#ffd166">&quot;build / learn&quot;</text><text x="752" y="410" fill="#f4f1eb">);</text>
    <text x="132" y="464" fill="#667895">04</text><text x="190" y="464" fill="#f4f1eb">&#125;</text>
    <text x="132" y="518" fill="#667895">05</text><text x="160" y="518" fill="#f4f1eb">&#125;</text>
  </g>
  <rect x="86" y="664" width="244" height="52" rx="26" fill="url(#accent)" /><text x="118" y="699" font-family="ui-monospace, SFMono-Regular, Menlo, monospace" font-size="21" fill="#10202d">C# / .NET</text>
  <text x="850" y="699" font-family="ui-monospace, SFMono-Regular, Menlo, monospace" font-size="26" fill="#c5d4ed">DESKTOP APP</text>
</svg>
